<svg width="32" height="32" viewBox="0 0 32 32" fill="none" xmlns="http://www.w3.org/2000/svg">
    <g clip-path="url(#clip0_241_629)">
        <path
            d="M14.8475 0.0378809C14.7265 0.0506309 14.3487 0.0953809 14.0155 0.134631C12.672 0.287881 11.1485 0.691381 9.81147 1.25463C4.97273 3.27638 1.33098 7.71213 0.326227 12.7999C0.0897266 14.0099 0.0322266 14.6044 0.0322266 15.9999C0.0322266 17.7986 0.210977 19.0399 0.684727 20.6084C2.23348 25.7409 6.26548 29.7664 11.4112 31.3211C12.96 31.7889 14.208 31.9676 16 31.9676C17.7987 31.9676 19.04 31.7889 20.6085 31.3151C25.741 29.7664 29.7665 25.7344 31.3212 20.5886C31.789 19.0399 31.9677 17.7919 31.9677 15.9999C31.9677 15.2381 31.9297 14.3681 31.8847 14.0476C31.3662 10.3486 29.8427 7.23813 27.3027 4.69713C24.7675 2.17563 21.67 0.646381 18.0475 0.127881C17.5485 0.057381 15.238 -0.00711905 14.8475 0.0378809ZM9.63173 10.1179C9.97173 10.2204 10.1307 10.3164 10.3612 10.5466C10.8095 11.0016 10.912 11.2509 10.912 11.9354C10.912 12.4481 10.8925 12.5439 10.7392 12.8124C10.4442 13.3114 9.75973 13.7724 9.28623 13.7849C8.95298 13.7919 8.96673 13.6444 9.33123 13.2606C9.81748 12.7549 9.88772 12.5631 9.88772 11.8074C9.88173 11.0781 9.79198 10.8289 9.45298 10.6239C9.17098 10.4511 8.86423 10.4639 8.41598 10.6746C7.25098 11.2321 5.99023 13.0879 5.49798 14.9891C4.84473 17.5234 6.00298 19.5516 7.91023 19.2059C8.46673 19.1034 9.51648 18.5664 9.97173 18.1434C10.3487 17.7986 10.3487 17.7919 10.3867 17.3634C10.4707 16.4666 11.1035 15.5711 11.9492 15.1551C12.3387 14.9626 12.4355 14.9441 12.96 14.9441C13.459 14.9441 13.5742 14.9696 13.8175 15.1034C14.5917 15.5459 14.4317 16.5759 13.5937 16.5759C13.1075 16.5759 12.8575 16.3259 13.21 16.1924C13.5557 16.0644 13.4267 15.5839 13.0245 15.4754C12.5507 15.3534 12.0127 15.6736 11.6737 16.2879C11.2637 17.0304 11.245 17.9139 11.6347 18.3164C12.0127 18.7196 12.4862 18.4004 12.8515 17.4841C13.043 17.0174 13.3182 16.7674 13.6387 16.7674C13.92 16.7674 13.9717 16.9404 13.8495 17.4656C13.67 18.2781 13.792 18.4891 14.2977 18.2401C14.4637 18.1629 14.7392 17.9844 14.9052 17.8564L15.2187 17.6064L15.4307 16.4989C15.6612 15.2576 15.75 15.0906 16.2237 15.0019C16.6787 14.9179 16.7812 15.1424 16.6142 15.8524L16.5242 16.2499L16.8575 15.9099C17.6445 15.1034 18.6112 14.7069 18.9442 15.0399C19.123 15.2186 19.1035 15.4431 18.8477 16.2361C18.7265 16.6141 18.5595 17.2099 18.4835 17.5486C18.3682 18.0604 18.3612 18.1824 18.426 18.2656C18.631 18.5086 19.2577 18.2586 19.8145 17.7146L20.1407 17.3954L20.1797 16.6844C20.2177 15.8651 20.294 15.5711 20.5117 15.3084C20.7167 15.0654 21.088 14.8866 21.2862 14.9374C21.4845 14.9891 21.4845 15.1806 21.3057 15.7441C21.0557 16.5184 21.082 18.3036 21.338 18.3036C21.4405 18.3036 21.9647 17.7536 22.298 17.2929L22.547 16.9529L22.3487 16.7489C22.003 16.3839 21.92 16.1474 21.92 15.5516C21.92 15.1171 21.9522 14.9569 22.0605 14.7449C22.2402 14.4129 22.5215 14.1699 22.8545 14.0731C23.206 13.9646 23.6415 14.1434 23.8202 14.4636C24 14.7899 23.9552 15.5194 23.7245 16.0194L23.5585 16.3836H23.7822C24.0897 16.3836 24.211 16.3074 24.7617 15.7889C25.0497 15.5136 25.3827 15.2764 25.6317 15.1611C26.6112 14.7011 27.7637 14.9374 27.955 15.6414C28.115 16.2049 27.7637 16.6014 27.1485 16.5564C26.707 16.5244 26.624 16.4089 26.88 16.1924C27.3407 15.8074 26.88 15.3154 26.2207 15.4941C25.8622 15.5906 25.459 15.9931 25.2482 16.4609C24.8252 17.3954 25.0497 18.4959 25.6572 18.4959C25.9005 18.4959 26.33 18.0156 26.496 17.5486C26.6942 17.0106 27.1102 16.6719 27.4237 16.7936C27.5967 16.8574 27.6095 17.0301 27.501 17.5741C27.379 18.1699 27.3602 18.7266 27.456 18.9824C27.4942 19.0779 27.6095 19.2576 27.7187 19.3789C27.9227 19.6091 27.9297 19.6924 27.7567 19.8016C27.6737 19.8591 27.5642 19.8339 27.296 19.6866C26.9247 19.4941 26.6045 19.1484 26.4892 18.8221L26.419 18.6306L26.163 18.8221C26.0155 18.9246 25.7852 19.0399 25.6512 19.0779C25.12 19.2186 24.4667 18.8544 24.1602 18.2401C24.038 18.0026 24 17.3056 24.0897 17.0369C24.1407 16.8894 24.1407 16.8894 23.9355 16.9919C23.8272 17.0496 23.5967 17.1131 23.418 17.1326C23.123 17.1651 23.078 17.1971 22.7842 17.5681C22.3682 18.0856 21.6317 18.7841 21.331 18.9316C20.6915 19.2509 20.4805 19.1611 20.3135 18.5016L20.1982 18.0604L19.9227 18.3036C19.5712 18.6111 18.8672 18.9824 18.4637 19.0721C18.08 19.1551 17.67 19.0331 17.5037 18.7771C17.255 18.3934 17.338 17.5809 17.7342 16.4861C18.0282 15.6736 17.8175 15.6611 17.0752 16.4354C16.5245 17.0174 16.288 17.4334 16.1347 18.0799C15.9747 18.7519 15.7822 18.9949 15.3477 19.0974C15.085 19.1551 14.9627 18.9949 15.0147 18.6434L15.0527 18.3611L14.8095 18.5281C14.4637 18.7646 14.0282 18.9824 13.7275 19.0654C13.4267 19.1484 13.0302 19.0594 12.9345 18.8924C12.7617 18.5986 12.7617 18.5986 12.4932 18.8094C11.9102 19.2831 11.0782 19.1484 10.6562 18.5214L10.5212 18.3231L10.0995 18.7136C8.88273 19.8271 7.36023 20.3261 6.23348 19.9804C4.79973 19.5459 4.00673 18.3164 4.01948 16.5439C4.02548 14.7646 4.81248 12.8896 6.13773 11.5009C6.88673 10.7196 7.59073 10.2586 8.30772 10.0859C8.82523 9.95788 9.13973 9.96438 9.63173 10.1179Z"
            fill="white" />
        <path
            d="M22.6045 14.6689C22.4637 14.8094 22.5155 15.3729 22.6945 15.7314C22.7842 15.9169 22.88 16.0644 22.912 16.0644C22.9375 16.0644 22.995 15.9169 23.04 15.7371C23.2 15.0721 22.912 14.3611 22.6045 14.6689Z"
            fill="white" />
    </g>
    <defs>
        <clipPath id="clip0_241_629">
            <rect width="32" height="32" rx="16" fill="white" />
        </clipPath>
    </defs>
</svg>