<svg width="32" height="32" viewBox="0 0 32 32" fill="none" xmlns="http://www.w3.org/2000/svg">
<g clip-path="url(#clip0_241_677)">
<path d="M26.6868 0H5.31315C2.37932 0 0.000975609 2.43557 0.000975609 5.44V26.5088C0.000975609 29.5132 2.37932 31.9488 5.31315 31.9488H26.6868C29.6207 31.9488 31.999 29.5132 31.999 26.5088V5.44C31.999 2.43557 29.6207 0 26.6868 0Z" fill="#49021F"/>
<path d="M11.6214 8.35814V22.3606C11.6214 22.5073 11.557 22.5805 11.4282 22.5805H8.83081C8.71619 22.5805 8.65895 22.5071 8.6592 22.3606V8.35814C8.6592 8.24102 8.72357 8.18239 8.85231 8.18226H11.4497C11.4715 8.1791 11.4937 8.18084 11.5149 8.18737C11.536 8.1939 11.5555 8.20507 11.5719 8.22009C11.5884 8.23511 11.6015 8.25363 11.6103 8.27435C11.619 8.29507 11.6233 8.31751 11.6228 8.34009L11.6214 8.35814ZM19.4442 22.7988L19.3059 22.8003C18.3179 22.8156 17.339 22.6054 16.4403 22.1848C15.6031 21.788 14.9033 21.1403 14.4333 20.3273C13.9585 19.5197 13.7154 18.5131 13.7039 17.3078L13.7035 17.2169C13.6955 16.208 13.9473 15.2148 14.4335 14.3373C14.9208 13.4674 15.6317 12.751 16.4887 12.2658L16.5585 12.2269C17.4884 11.6994 18.6118 11.4356 19.9285 11.4356L19.9563 11.4358L20.0179 11.4372L20.0876 11.44L20.1655 11.4441L20.2514 11.4496L20.3452 11.4566L20.5573 11.4744L20.6153 11.4795V7.1493C20.6153 7.0469 20.6583 6.99532 20.7441 6.99532H23.4488C23.4663 6.99275 23.4841 6.99439 23.5009 7.00011C23.5176 7.00582 23.5329 7.01546 23.5454 7.02826C23.5579 7.04105 23.5673 7.05665 23.5729 7.07382C23.5784 7.09099 23.58 7.10925 23.5775 7.12716V20.1185C23.5784 20.3899 23.5892 20.6612 23.6098 20.9318L23.63 21.2152L23.6479 21.479L23.6634 21.7231C23.6661 21.7688 23.6552 21.8142 23.6322 21.8535C23.6092 21.8927 23.5752 21.9239 23.5347 21.943C22.8369 22.241 22.1101 22.462 21.3667 22.6024C20.7323 22.7223 20.0893 22.788 19.4443 22.7988H19.4442ZM20.6153 20.0745V14.0735C20.4993 14.0413 20.3809 14.0192 20.2612 14.0075C20.115 13.9925 19.9681 13.9851 19.8211 13.9855C19.3002 13.9803 18.7855 14.1007 18.3186 14.3373C17.8638 14.5688 17.4755 14.9172 17.1917 15.3485C16.8982 15.788 16.7515 16.367 16.7516 17.085C16.7411 17.5642 16.8175 18.0412 16.9769 18.4918C17.1067 18.8549 17.3117 19.1849 17.578 19.4591C17.8329 19.7113 18.1416 19.8994 18.4796 20.0086C18.8366 20.127 19.2098 20.1864 19.585 20.1846C19.7853 20.1846 19.9713 20.1771 20.1431 20.1624C20.2802 20.1519 20.4161 20.1287 20.5491 20.0933L20.6153 20.0745Z" fill="#FF3366"/>
</g>
<defs>
<clipPath id="clip0_241_677">
<rect width="32" height="32" fill="white"/>
</clipPath>
</defs>
</svg>
