<svg width="32" height="32" viewBox="0 0 32 32" fill="none" xmlns="http://www.w3.org/2000/svg">
<g clip-path="url(#clip0_241_648)">
<path d="M28.7067 5.74133V26.2253C28.7067 26.9427 28.4969 27.5796 28.0773 28.136C27.6578 28.6933 27.1009 29.0711 26.4067 29.2693L17.2227 31.9013C17.1018 31.9342 16.9729 31.9587 16.836 31.9747C16.6973 31.9916 16.5671 32 16.4453 32C16.0933 32 15.7733 31.9533 15.4853 31.86C15.2 31.7658 14.9084 31.636 14.6107 31.4707L8.604 28.0787C8.38356 27.9569 8.20978 27.7942 8.08267 27.5907C7.95555 27.3862 7.892 27.1573 7.892 26.904C7.892 26.5182 8.02711 26.1902 8.29733 25.92C8.56756 25.6489 8.896 25.5133 9.28267 25.5133H17.0573V6.61867L11.2173 8.70267C10.7436 8.86889 10.3631 9.16133 10.076 9.58C9.78978 9.99956 9.64667 10.4573 9.64667 10.9533V21.724C9.64667 22.1649 9.53644 22.5702 9.316 22.94C9.09378 23.3098 8.79022 23.5991 8.40533 23.808L5.64267 25.3147C5.38844 25.4462 5.13467 25.512 4.88133 25.512C4.43956 25.512 4.06444 25.3578 3.756 25.0493C3.44667 24.7409 3.292 24.3658 3.292 23.924V8.75067C3.292 8.19956 3.43867 7.67067 3.732 7.164C4.02356 6.65645 4.412 6.26489 4.89733 5.98933L14.76 0.38C14.9804 0.259111 15.2178 0.165778 15.472 0.1C15.7253 0.0333333 15.9787 0 16.232 0C16.4196 0 16.5884 0.0137778 16.7387 0.0413333C16.8862 0.0688889 17.048 0.110222 17.224 0.165333L26.408 2.69733C26.7493 2.79511 27.0604 2.94133 27.3413 3.136C27.6231 3.32889 27.8662 3.56 28.0707 3.82933C28.2751 4.10044 28.432 4.39822 28.5413 4.72267C28.6524 5.04889 28.7067 5.38844 28.7067 5.74133ZM26.5893 26.2253V5.74133C26.5893 5.49867 26.5182 5.28622 26.376 5.104C26.2311 4.92267 26.0431 4.79822 25.812 4.73067L21.2947 3.49067C20.9418 3.392 20.5889 3.28978 20.236 3.184C19.8831 3.08 19.5302 2.984 19.1773 2.896V29.136L25.812 27.2333C26.0431 27.1676 26.2307 27.0431 26.3747 26.86C26.5178 26.6787 26.5893 26.4667 26.5893 26.224V26.2253Z" fill="white"/>
</g>
<defs>
<clipPath id="clip0_241_648">
<rect width="32" height="32" fill="white"/>
</clipPath>
</defs>
</svg>
