<svg width="32" height="32" viewBox="0 0 32 32" fill="none" xmlns="http://www.w3.org/2000/svg">
<g clip-path="url(#clip0_241_639)">
<path d="M24.5 0H7.5C3.35786 0 0 3.35786 0 7.5V24.5C0 28.6421 3.35786 32 7.5 32H24.5C28.6421 32 32 28.6421 32 24.5V7.5C32 3.35786 28.6421 0 24.5 0Z" fill="#E7242D"/>
<path d="M20.002 2.375L3.5 4.5255V4.65012L5.88375 18.8987L9.2715 29.5281L26.6799 24.571L28.5 9.0435L20.002 2.375ZM19.5596 4.024L26.4186 9.41462L20.3236 10.5106L16.6035 6.63912L6.24538 8.14775L5.30062 5.88587L19.5596 4.024ZM16.7442 10.8127L20.2745 15.2165L14.5519 16.4346L13.1842 14.0805L7.91388 15.107L6.95862 12.5424L16.7442 10.8127ZM13.5764 18.7479L14.8744 21.3022L9.585 22.6194L8.649 19.8736L13.5764 18.7479Z" fill="white"/>
</g>
<defs>
<clipPath id="clip0_241_639">
<rect width="32" height="32" fill="white"/>
</clipPath>
</defs>
</svg>
