<?xml version="1.0" encoding="UTF-8"?>
<svg xmlns="http://www.w3.org/2000/svg" xmlns:xlink="http://www.w3.org/1999/xlink" version="1.1" id="Calque_1" x="0px" y="0px" viewBox="0 0 958 277" style="enable-background:new 0 0 958 277;" xml:space="preserve">
<style type="text/css">
	.st0{fill-rule:evenodd;clip-rule:evenodd;fill:#020C42;}
	.st1{fill:#020C42;}
	.st2{fill:#88A800;}
</style>
<g>
	<g>
		<path class="st0" d="M204.1,174.1c0,56.4-45.7,102-102.1,102S0,230.4,0,174.1S102.1,0,102.1,0S204.1,117.7,204.1,174.1z     M70.8,222.4l9.9,5.5v-73.9l21.3,11.8l21.3-11.8V228l9.9-5.6v-84l-31.2,16.8l-31.2-16.8V222.4z M48.3,209.5v-85.4l53.7-30.9    l53.7,30.9v85.4l-10.6,6.1v-86l-42.8-24.7l-0.3-0.2l-42.8,24.7l-0.3,0.2v86L48.3,209.5z"></path>
		<path class="st1" d="M307.2,136.7l-44.4-63h-0.1v91.3h16.7v-39.2l27.5,38h0.2l28.6-40.6v41.8h17.3V73.7h-0.2L307.2,136.7z"></path>
		<path class="st1" d="M391.3,77.2H374v87.7h17.3V77.2z"></path>
		<path class="st1" d="M429.7,77.2h-17.3v87.7h58.5v-16.7h-41.2V77.2z"></path>
		<path class="st1" d="M504.5,77.2h-17.3v87.7h58.5v-16.7h-41.2V77.2z"></path>
		<path class="st1" d="M579.3,129.3H617v-16.7h-37.7V93.9h42.5V77.2H562v87.7h61.5v-16.7h-44.2V129.3z"></path>
		<path class="st1" d="M701.8,130l-61.2-56.2h-0.7v91.1h17.5l-0.4-51.8l61.4,55.4h0.5V77.2h-17.4L701.8,130z"></path>
		<path class="st1" d="M757.2,77.2h-17.3v87.7h17.3V77.2z"></path>
		<path class="st1" d="M830.5,132.5c0,2.8-0.8,5.4-2.4,8c-1.6,2.5-3.9,4.6-6.7,6.2c-2.9,1.6-6,2.4-9.4,2.4c-3.2,0-6.2-0.8-8.9-2.4    c-2.8-1.6-5-3.7-6.7-6.2c-1.7-2.5-2.5-5.2-2.5-8V77.2h-17.3v55.6c0,6.3,1.6,11.9,4.7,17c3.1,5,7.4,9,12.8,11.8    c5.4,2.8,11.4,4.2,17.9,4.2s12.5-1.4,17.9-4.2c5.4-2.8,9.8-6.8,12.9-11.8c3.2-5,4.8-10.7,4.8-17V77.2h-17V132.5z"></path>
		<path class="st1" d="M956.9,73.7l-45.5,63l-44.4-63h-0.1v91.3h16.7v-39.2l27.5,38h0.2l28.6-40.6v41.8h17.3V73.7H956.9z"></path>
		<path class="st2" d="M267.8,192.8v25h14.6v3.7h-18.5v-28.7H267.8z"></path>
		<path class="st2" d="M317.4,192.8v3.7h-14.8v8.7h13.2v3.7h-13.2v8.9H318v3.7h-19.2v-28.7H317.4L317.4,192.8z"></path>
		<path class="st2" d="M382.4,192.8v29.7h-0.1l-21.1-21.4l0.1,20.4h-3.9v-29.6h0.2l21,21.6l-0.1-20.8L382.4,192.8L382.4,192.8z"></path>
		<path class="st2" d="M419.4,192.8v3.7h-14.8v8.7h13.2v3.7h-13.2v8.9H420v3.7h-19.2v-28.7H419.4L419.4,192.8z"></path>
		<path class="st2" d="M453.8,192.8v3.7H446v25h-3.9v-25h-7.5v-3.7H453.8z"></path>
		<path class="st2" d="M487,192.8v3.7h-7.7v25h-3.8v-25h-7.5v-3.7H487z"></path>
		<path class="st2" d="M502.2,199.9c1.3-2.2,3.1-4,5.3-5.4c2.2-1.3,4.7-2,7.3-2c2.6,0,5.1,0.7,7.3,2c2.2,1.3,4,3.1,5.4,5.4    c1.3,2.2,2,4.7,2,7.3c0,2.6-0.7,5.1-2,7.4c-1.3,2.2-3.1,4-5.4,5.3c-2.3,1.3-4.7,2-7.3,2s-5.1-0.6-7.4-1.9s-4-3.1-5.3-5.3    c-1.3-2.2-2-4.7-2-7.4C500.2,204.5,500.8,202.1,502.2,199.9z M505.6,212.7c0.9,1.7,2.3,3,3.9,4c1.6,1,3.5,1.5,5.4,1.5    c2,0,3.8-0.5,5.4-1.5c1.6-1,2.9-2.3,3.8-4c0.9-1.7,1.4-3.5,1.4-5.5c0-2-0.5-3.8-1.4-5.5c-1-1.7-2.2-3-3.9-4    c-1.6-1-3.4-1.5-5.4-1.5s-3.8,0.5-5.4,1.5c-1.6,1-2.9,2.3-3.9,4s-1.4,3.5-1.4,5.5S504.6,211,505.6,212.7z"></path>
		<path class="st2" d="M566,192.8l-10.8,19.1v9.6h-3.8v-9.6l-10.6-19.1h4.8l7.9,14.8l7.9-14.8H566L566,192.8z"></path>
		<path class="st2" d="M592.5,214h-11l-3.1,7.6h-3.8l12.6-29.9h0.2l12.5,29.9h-4.5L592.5,214z M591.2,210.6l-4.1-10.5l-4.2,10.5    H591.2z"></path>
		<path class="st2" d="M632.7,221c-1.9,0.6-3.6,0.9-5.2,0.9c-3,0-5.6-0.6-7.9-1.9c-2.3-1.2-4-2.9-5.3-5.1s-1.8-4.6-1.8-7.2    c0-3.1,0.7-5.8,2-8.1c1.3-2.3,3.1-4,5.4-5.3s4.7-1.8,7.4-1.8c1.6,0,3.1,0.2,4.6,0.6c1.4,0.4,2.7,0.9,3.8,1.5l-1.3,3.5    c-0.8-0.5-1.9-0.9-3.2-1.2c-1.3-0.4-2.4-0.5-3.5-0.5c-2.2,0-4.2,0.4-5.9,1.3c-1.7,0.9-3,2.2-3.9,3.9c-0.9,1.7-1.4,3.6-1.4,5.8    c0,2.1,0.5,3.9,1.4,5.5c0.9,1.6,2.2,2.9,3.9,3.8c1.7,0.9,3.6,1.3,5.8,1.3c1,0,2-0.1,2.9-0.3s1.8-0.5,2.4-0.9v-5.7h-5.7v-3.7h9.6    V219C636,219.7,634.6,220.4,632.7,221L632.7,221z"></path>
		<path class="st2" d="M672.9,192.8v3.7h-14.8v8.7h13.2v3.7h-13.2v8.9h15.4v3.7h-19.2v-28.7H672.9L672.9,192.8z"></path>
		<path class="st2" d="M728,195.1c1.8,1.6,2.6,3.8,2.6,6.6c0,1.6-0.3,3.1-1,4.5c-0.7,1.4-1.7,2.5-3.1,3.4s-3.3,1.3-5.5,1.3h-4.2    v10.6h-3.9v-28.7h7.7C723.8,192.8,726.2,193.6,728,195.1L728,195.1L728,195.1z M724.4,206.4c0.9-0.6,1.5-1.3,1.8-2.1    c0.4-0.8,0.6-1.6,0.6-2.4c0-1.4-0.5-2.6-1.4-3.7c-0.9-1.1-2.3-1.6-4.2-1.6h-4.4v10.7h4.2C722.4,207.2,723.5,206.9,724.4,206.4    L724.4,206.4z"></path>
		<path class="st2" d="M762.4,221.5l-6.8-10.6c-0.2,0-0.5,0-1,0h-4.2v10.6h-3.8v-28.7h7.7c2,0,3.7,0.3,5.2,1c1.5,0.7,2.7,1.7,3.6,3    c0.9,1.3,1.3,2.9,1.3,4.8c0,1.8-0.4,3.4-1.2,4.9c-0.8,1.5-2,2.6-3.6,3.4l7.2,11.6L762.4,221.5L762.4,221.5z M759.1,205.6    c0.9-1.1,1.4-2.3,1.4-3.7c0-0.9-0.2-1.7-0.6-2.5c-0.4-0.8-1-1.5-1.8-2.1c-0.8-0.5-1.9-0.8-3.2-0.8h-4.5v10.7h4.2    C756.7,207.2,758.2,206.7,759.1,205.6z"></path>
		<path class="st2" d="M801.6,192.8v3.7h-14.8v8.7H800v3.7h-13.2v8.9h15.4v3.7h-19.2v-28.7H801.6L801.6,192.8z"></path>
		<path class="st2" d="M847.5,191.9v29.6h-3.8v-18.6l-10.6,15h-0.1l-10.4-14.5v18.1H819v-29.6h0l14.1,20L847.5,191.9L847.5,191.9    L847.5,191.9L847.5,191.9z"></path>
		<path class="st2" d="M869.7,192.8v28.7h-3.9v-28.7H869.7z"></path>
		<path class="st2" d="M892.5,214.8c0.6,1,1.4,1.8,2.5,2.4c1,0.6,2.2,0.9,3.5,0.9s2.5-0.3,3.6-0.9s1.9-1.4,2.5-2.4    c0.6-1,0.9-2.2,0.9-3.5v-18.6h3.8v18.7c0,2-0.5,3.9-1.4,5.4c-0.9,1.6-2.2,2.8-3.9,3.7c-1.6,0.9-3.5,1.3-5.5,1.3s-3.8-0.4-5.4-1.3    c-1.6-0.9-2.9-2.1-3.9-3.7c-0.9-1.6-1.4-3.4-1.4-5.4v-18.7h3.8v18.6C891.5,212.6,891.8,213.8,892.5,214.8L892.5,214.8z"></path>
		<path class="st2" d="M955.8,191.9v29.6H952v-18.6l-10.6,15h-0.1L931,203.4v18.1h-3.7v-29.6h0l14.1,20L955.8,191.9L955.8,191.9    L955.8,191.9L955.8,191.9z"></path>
	</g>
</g>
</svg>
